<?xml version="1.0" standalone="no"?><!DOCTYPE svg PUBLIC "-//W3C//DTD SVG 1.1//EN" "http://www.w3.org/Graphics/SVG/1.1/DTD/svg11.dtd"><svg t="1528196889528" class="icon" style="" viewBox="0 0 1024 1024" version="1.1" xmlns="http://www.w3.org/2000/svg" p-id="17168" xmlns:xlink="http://www.w3.org/1999/xlink" width="128" height="128"><defs><style type="text/css"></style></defs><path d="M557.554522 691.169659l-50.327222-50.324152c-64.835657-2.455935-116.857475-54.474682-119.332852-119.324666l-50.334386-50.331315a180.078355 180.078355 0 0 0-5.821589 45.525869c0.00307 99.412151 80.870866 180.288133 180.267667 180.285063a180.179662 180.179662 0 0 0 45.548382-5.830799zM214.784808 181.844581c-5.662977-5.662977-13.146415-8.782014-21.071921-8.782013-7.990998 0-15.540951 3.148713-21.256117 8.864901-11.493775 11.494799-11.531638 30.879288-0.080841 42.328038l617.936751 617.897865c5.662977 5.662977 13.146415 8.782014 21.071921 8.782014 7.990998 0 15.540951-3.148713 21.25714-8.864902 11.493775-11.494799 11.530614-30.879288 0.080841-42.328037l-617.937774-617.897866z" p-id="17169"></path><path d="M512.007163 740.226958c-70.435189 0.002047-144.667867-30.637788-220.636073-91.070158-61.128219-48.626487-107.251699-103.968933-129.304971-132.630717l-1.693572-2.200108 1.691526-2.203178c17.907858-23.322172 55.026244-68.495 104.472399-111.954815l-39.827077-39.825031c-75.131141 66.523089-122.256438 135.288243-124.246769 138.214899-6.53381 9.585309-6.532787 21.974477 0 31.565926 7.407714 10.867512 184.040596 266.176268 409.547607 266.169105 40.935318-0.001023 83.066881-8.534374 125.304867-25.369807l-43.861973-43.858904c-27.602661 8.734942-54.992475 13.162788-81.445964 13.162788zM921.53942 498.534314c-3.006474-4.419659-74.842569-109.039415-184.139857-185.657421l-54.610782-33.371038c-46.608527-25.037233-93.51893-40.150442-139.445935-44.924165l-31.351032-1.860371-31.353079 1.862417c-34.278711 3.565199-69.252247 12.923334-104.040565 27.832906l42.89802 42.894949c31.391964-11.160177 62.501496-16.818037 92.496647-16.819061 70.421886-0.002047 144.642285 30.622438 220.60128 91.025133 61.070914 48.564066 107.248629 103.922884 129.338741 132.598994l1.697665 2.204201-1.697665 2.205225c-19.325138 25.093515-59.360969 73.492828-112.461352 118.741382l39.978527 39.97648c77.923744-67.067488 126.730333-137.28369 132.090411-145.145752 6.531763-9.591449 6.53074-21.980617-0.001024-31.563879z" p-id="17170"></path><path d="M684.22141 570.021461c5.338588-17.21201 8.042163-35.120892 8.04114-53.318346-0.00307-99.378381-80.870866-180.226734-180.267667-180.223664-18.187221 0-36.084846 2.701528-53.290716 8.037047l48.136323 48.133253c1.719154-0.070608 3.447519-0.106424 5.157463-0.106423 68.483744-0.002047 124.20072 55.69651 124.202767 124.160811 0 1.723248-0.035816 3.461845-0.106424 5.189185l48.127114 48.128137z" p-id="17171"></path></svg>