<?xml version="1.0" standalone="no"?><!DOCTYPE svg PUBLIC "-//W3C//DTD SVG 1.1//EN" "http://www.w3.org/Graphics/SVG/1.1/DTD/svg11.dtd"><svg t="1527649653484" class="icon" style="" viewBox="0 0 1024 1024" version="1.1" xmlns="http://www.w3.org/2000/svg" p-id="3288" xmlns:xlink="http://www.w3.org/1999/xlink" width="128" height="128"><defs><style type="text/css"></style></defs><path d="M929.458 612.514c15.293 0 28.661-13.238 28.661-28.368v-520.104c0-15.141-13.379-28.368-28.661-28.368h-158.462l0.032 576.84h158.43zM52.294 584.162l0.010-0.010c26.752 32.15 68.787 32.15 82.176 32.15h162.434c43.96 0 64.972 3.776 74.531 7.562-53.514 85.113-45.859 211.824-7.643 279.908 21.028 35.95 47.768 54.857 78.347 54.857h3.818c13.373 1.894 43.956 3.776 64.969-17.013 13.378-13.242 19.107-34.052 17.192-58.639-13.983-155.584 134.924-246.376 183.961-272.403 0-36.783-0.5-569.574-0.5-574.9 0 0-338.244 1.894-452.907 1.894-114.658 0-158.614 187.243-193.016 338.546-7.638 34.052-15.293 66.202-22.932 90.787-13.379 51.061-11.453 90.782 9.56 117.262v0 0z" p-id="3289"></path></svg>