<?xml version="1.0" standalone="no"?><!DOCTYPE svg PUBLIC "-//W3C//DTD SVG 1.1//EN" "http://www.w3.org/Graphics/SVG/1.1/DTD/svg11.dtd"><svg t="1527649557351" class="icon" style="" viewBox="0 0 1592 1024" version="1.1" xmlns="http://www.w3.org/2000/svg" p-id="1903" xmlns:xlink="http://www.w3.org/1999/xlink" width="199" height="128"><defs><style type="text/css"></style></defs><path d="M796.272649 0C362.022433 0 0 512 0 512s217.125108 512 796.272649 512S1592.545298 512 1592.545298 512 1230.743745 0 796.272649 0z m0 819.023296c-219.996549 0-398.246764-137.387403-398.246765-307.023296S576.2761 204.755824 796.272649 204.755824c219.775669 0 398.246764 137.608283 398.246764 307.244176s-178.250216 307.023296-398.246764 307.023296z m0-511.77912c-109.998274 0-199.012942 91.665229-199.012942 204.755824s89.014668 204.755824 199.012942 204.755824 199.012942-91.665229 199.012942-204.755824c0.22088-113.090595-89.014668-204.755824-199.012942-204.755824z m0 0" fill="" p-id="1904"></path></svg>